Coda Normal-BoldCopy.ufo
<glyph name="exclam" format="1">
  <advance width="847"/>
  <unicode hex="0021"/>
  <outline>
    <contour>
      <point x="421" y="535" type="curve" smooth="yes"/>
      <point x="445" y="535"/>
      <point x="468" y="556"/>
      <point x="478" y="600" type="curve" smooth="yes"/>
      <point x="538" y="878"/>
      <point x="664" y="1266"/>
      <point x="664" y="1412" type="curve" smooth="yes"/>
      <point x="664" y="1551"/>
      <point x="544" y="1624"/>
      <point x="419" y="1624" type="curve" smooth="yes"/>
      <point x="298" y="1624"/>
      <point x="183" y="1555"/>
      <point x="183" y="1414" type="curve" smooth="yes"/>
      <point x="183" y="1272"/>
      <point x="302" y="884"/>
      <point x="363" y="600" type="curve" smooth="yes"/>
      <point x="373" y="555"/>
      <point x="397" y="535"/>
    </contour>
    <contour>
      <point x="421" y="-37" type="curve" smooth="yes"/>
      <point x="520" y="-37"/>
      <point x="619" y="31"/>
      <point x="619" y="167" type="curve" smooth="yes"/>
      <point x="619" y="302"/>
      <point x="520" y="370"/>
      <point x="421" y="370" type="curve" smooth="yes"/>
      <point x="322" y="370"/>
      <point x="223" y="303"/>
      <point x="223" y="167" type="curve" smooth="yes"/>
      <point x="223" y="31"/>
      <point x="322" y="-37"/>
    </contour>
  </outline>
</glyph>
<glyph name="ampersand" format="1">
  <advance width="1717"/>
  <unicode hex="0026"/>
  <outline>
    <contour>
      <point x="799" y="-38" type="curve" smooth="yes"/>
      <point x="1325" y="-38"/>
      <point x="1463" y="79"/>
      <point x="1463" y="499" type="curve"/>
      <point x="1463" y="735" type="line"/>
      <point x="1612" y="735" type="line"/>
      <point x="1612" y="921" type="line"/>
      <point x="1463" y="921" type="line"/>
      <point x="1463" y="1057" type="line"/>
      <point x="954" y="1057" type="line"/>
      <point x="954" y="921" type="line"/>
      <point x="811" y="921" type="line" smooth="yes"/>
      <point x="803" y="921"/>
      <point x="703" y="926"/>
      <point x="703" y="948" type="curve" smooth="yes"/>
      <point x="703" y="1367" type="line" smooth="yes"/>
      <point x="703" y="1383"/>
      <point x="803" y="1389"/>
      <point x="826" y="1389" type="curve" smooth="yes"/>
      <point x="841" y="1389"/>
      <point x="942" y="1388"/>
      <point x="947" y="1386" type="curve" smooth="yes"/>
      <point x="951" y="1383"/>
      <point x="952" y="1192"/>
      <point x="952" y="1184" type="curve"/>
      <point x="1458" y="1186" type="line"/>
      <point x="1461" y="1204"/>
      <point x="1461" y="1229"/>
      <point x="1461" y="1244" type="curve" smooth="yes"/>
      <point x="1461" y="1519"/>
      <point x="1244" y="1621"/>
      <point x="841" y="1621" type="curve" smooth="yes"/>
      <point x="485" y="1621"/>
      <point x="141" y="1578"/>
      <point x="141" y="1193" type="curve" smooth="yes"/>
      <point x="141" y="965"/>
      <point x="230" y="885"/>
      <point x="295" y="873" type="curve" smooth="yes"/>
      <point x="297" y="871"/>
      <point x="401" y="859"/>
      <point x="403" y="858" type="curve"/>
      <point x="403" y="822" type="line"/>
      <point x="400" y="822"/>
      <point x="297" y="809"/>
      <point x="295" y="807" type="curve" smooth="yes"/>
      <point x="177" y="789"/>
      <point x="135" y="571"/>
      <point x="135" y="449" type="curve" smooth="yes"/>
      <point x="135" y="25"/>
      <point x="400" y="-38"/>
    </contour>
    <contour>
      <point x="822" y="215" type="curve" smooth="yes"/>
      <point x="801" y="215"/>
      <point x="697" y="223"/>
      <point x="697" y="240" type="curve" smooth="yes"/>
      <point x="697" y="262"/>
      <point x="697" y="735"/>
      <point x="712" y="735" type="curve" smooth="yes"/>
      <point x="954" y="735" type="line"/>
      <point x="954" y="237" type="line" smooth="yes"/>
      <point x="954" y="223"/>
      <point x="845" y="215"/>
    </contour>
  </outline>
</glyph>
<glyph name="quotesingle" format="1">
  <advance width="879"/>
  <unicode hex="0027"/>
  <outline>
    <contour>
      <point x="487" y="899" type="curve"/>
      <point x="528" y="1070"/>
      <point x="619" y="1339"/>
      <point x="619" y="1445" type="curve" smooth="yes"/>
      <point x="619" y="1557"/>
      <point x="527" y="1616"/>
      <point x="435" y="1616" type="curve" smooth="yes"/>
      <point x="343" y="1616"/>
      <point x="258" y="1561"/>
      <point x="258" y="1445" type="curve" smooth="yes"/>
      <point x="258" y="1343"/>
      <point x="345" y="1074"/>
      <point x="386" y="899" type="curve"/>
      <point x="396" y="863"/>
      <point x="417" y="846"/>
      <point x="436" y="846" type="curve"/>
      <point x="456" y="846"/>
      <point x="479" y="864"/>
    </contour>
  </outline>
</glyph>
<glyph name="parenleft" format="1">
  <advance width="1188"/>
  <unicode hex="0028"/>
  <outline>
    <contour>
      <point x="945" y="-175" type="curve"/>
      <point x="947" y="90" type="line"/>
      <point x="717" y="94"/>
      <point x="625" y="446"/>
      <point x="625" y="817" type="curve" smooth="yes"/>
      <point x="625" y="1189"/>
      <point x="717" y="1557"/>
      <point x="947" y="1561" type="curve"/>
      <point x="945" y="1825" type="line"/>
      <point x="439" y="1822"/>
      <point x="244" y="1319"/>
      <point x="244" y="817" type="curve" smooth="yes"/>
      <point x="244" y="315"/>
      <point x="439" y="-172"/>
    </contour>
  </outline>
</glyph>
<glyph name="comma" format="1">
  <advance width="946"/>
  <unicode hex="002C"/>
  <outline>
    <contour>
      <point x="330" y="-234" type="curve" smooth="yes"/>
      <point x="543" y="-234"/>
      <point x="668" y="-17"/>
      <point x="668" y="165" type="curve" smooth="yes"/>
      <point x="668" y="291"/>
      <point x="603" y="399"/>
      <point x="465" y="399" type="curve" smooth="yes"/>
      <point x="364" y="399"/>
      <point x="267" y="332"/>
      <point x="267" y="204" type="curve" smooth="yes"/>
      <point x="267" y="79"/>
      <point x="350" y="9"/>
      <point x="442" y="0" type="curve"/>
      <point x="437" y="-78"/>
      <point x="365" y="-125"/>
      <point x="285" y="-126" type="curve"/>
      <point x="285" y="-231" type="line"/>
      <point x="299" y="-233"/>
      <point x="315" y="-234"/>
    </contour>
  </outline>
</glyph>
<glyph name="four" format="1">
  <advance width="1508"/>
  <unicode hex="0034"/>
  <outline>
    <contour>
      <point x="399" y="1585" type="line"/>
      <point x="119" y="645" type="line"/>
      <point x="119" y="255" type="line"/>
      <point x="900" y="255" type="line"/>
      <point x="900" y="0" type="line"/>
      <point x="1379" y="0" type="line"/>
      <point x="1379" y="946" type="line"/>
      <point x="900" y="946" type="line"/>
      <point x="900" y="595" type="line"/>
      <point x="656" y="595" type="line"/>
      <point x="666" y="663" type="line"/>
      <point x="935" y="1585" type="line"/>
    </contour>
  </outline>
</glyph>
<glyph name="six" format="1">
  <advance width="1508"/>
  <unicode hex="0036"/>
  <outline>
    <contour>
      <point x="768" y="-36" type="curve" smooth="yes"/>
      <point x="1222" y="-34"/>
      <point x="1413" y="65"/>
      <point x="1413" y="520" type="curve" smooth="yes"/>
      <point x="1413" y="935"/>
      <point x="1256" y="1056"/>
      <point x="805" y="1056" type="curve" smooth="yes"/>
      <point x="786" y="1056"/>
      <point x="666" y="1053"/>
      <point x="661" y="1046" type="curve"/>
      <point x="661" y="1347" type="line" smooth="yes"/>
      <point x="661" y="1364"/>
      <point x="741" y="1369"/>
      <point x="765" y="1369" type="curve" smooth="yes"/>
      <point x="777" y="1369"/>
      <point x="861" y="1368"/>
      <point x="864" y="1366" type="curve" smooth="yes"/>
      <point x="867" y="1363"/>
      <point x="867" y="1166"/>
      <point x="867" y="1156" type="curve"/>
      <point x="1362" y="1175" type="line"/>
      <point x="1363" y="1241" type="line" smooth="yes"/>
      <point x="1368" y="1595"/>
      <point x="1074" y="1619"/>
      <point x="763" y="1619" type="curve" smooth="yes"/>
      <point x="305" y="1619"/>
      <point x="145" y="1479"/>
      <point x="145" y="1031" type="curve" smooth="yes"/>
      <point x="145" y="492" type="line" smooth="yes"/>
      <point x="145" y="93"/>
      <point x="327" y="-36"/>
    </contour>
    <contour>
      <point x="772" y="225" type="curve" smooth="yes"/>
      <point x="742" y="225"/>
      <point x="660" y="233"/>
      <point x="660" y="250" type="curve" smooth="yes"/>
      <point x="660" y="771" type="line" smooth="yes"/>
      <point x="660" y="789"/>
      <point x="740" y="798"/>
      <point x="772" y="798" type="curve" smooth="yes"/>
      <point x="802" y="798"/>
      <point x="885" y="793"/>
      <point x="885" y="772" type="curve" smooth="yes"/>
      <point x="885" y="246" type="line" smooth="yes"/>
      <point x="885" y="230"/>
      <point x="801" y="225"/>
    </contour>
  </outline>
</glyph>
<glyph name="eight" format="1">
  <advance width="1508"/>
  <unicode hex="0038"/>
  <outline>
    <contour>
      <point x="752" y="-38" type="curve" smooth="yes"/>
      <point x="1208" y="-38"/>
      <point x="1426" y="39"/>
      <point x="1426" y="397" type="curve" smooth="yes"/>
      <point x="1426" y="698"/>
      <point x="1353" y="776"/>
      <point x="1185" y="848" type="curve"/>
      <point x="1306" y="898"/>
      <point x="1338" y="1027"/>
      <point x="1338" y="1211" type="curve" smooth="yes"/>
      <point x="1338" y="1523"/>
      <point x="1192" y="1619"/>
      <point x="751" y="1619" type="curve" smooth="yes"/>
      <point x="302" y="1619"/>
      <point x="157" y="1523"/>
      <point x="157" y="1211" type="curve" smooth="yes"/>
      <point x="157" y="1027"/>
      <point x="188" y="898"/>
      <point x="308" y="848" type="curve"/>
      <point x="140" y="776"/>
      <point x="69" y="698"/>
      <point x="69" y="397" type="curve" smooth="yes"/>
      <point x="69" y="38"/>
      <point x="288" y="-38"/>
    </contour>
    <contour>
      <point x="751" y="221" type="curve" smooth="yes"/>
      <point x="575" y="221"/>
      <point x="557" y="275"/>
      <point x="557" y="407" type="curve" smooth="yes"/>
      <point x="557" y="489" type="line" smooth="yes"/>
      <point x="557" y="697"/>
      <point x="619" y="699"/>
      <point x="752" y="699" type="curve" smooth="yes"/>
      <point x="878" y="699"/>
      <point x="940" y="696"/>
      <point x="940" y="489" type="curve" smooth="yes"/>
      <point x="940" y="407" type="line" smooth="yes"/>
      <point x="940" y="275"/>
      <point x="921" y="221"/>
    </contour>
    <contour>
      <point x="683" y="910" type="line"/>
      <point x="614" y="972"/>
      <point x="608" y="1058"/>
      <point x="608" y="1194" type="curve" smooth="yes"/>
      <point x="608" y="1344"/>
      <point x="656" y="1358"/>
      <point x="752" y="1358" type="curve" smooth="yes"/>
      <point x="841" y="1358"/>
      <point x="889" y="1343"/>
      <point x="889" y="1194" type="curve" smooth="yes"/>
      <point x="889" y="1047"/>
      <point x="873" y="972"/>
      <point x="804" y="910" type="curve"/>
    </contour>
  </outline>
</glyph>
<glyph name="less" format="1">
  <advance width="1336"/>
  <unicode hex="003C"/>
  <outline>
    <contour>
      <point x="1087" y="23" type="line"/>
      <point x="1087" y="500" type="line"/>
      <point x="494" y="730" type="line"/>
      <point x="1087" y="952" type="line"/>
      <point x="1087" y="1430" type="line"/>
      <point x="229" y="1008" type="line"/>
      <point x="229" y="444" type="line"/>
    </contour>
  </outline>
</glyph>
<glyph name="equal" format="1">
  <advance width="1291"/>
  <unicode hex="003D"/>
  <outline>
    <contour>
      <point x="225" y="31" type="line"/>
      <point x="1113" y="31" type="line"/>
      <point x="1113" y="353" type="line"/>
      <point x="225" y="353" type="line"/>
    </contour>
    <contour>
      <point x="225" y="574" type="line"/>
      <point x="1113" y="574" type="line"/>
      <point x="1113" y="895" type="line"/>
      <point x="225" y="895" type="line"/>
    </contour>
  </outline>
</glyph>
<glyph name="C" format="1">
  <advance width="1671"/>
  <unicode hex="0043"/>
  <outline>
    <contour>
      <point x="839" y="1585" type="move" name="top"/>
    </contour>
    <contour>
      <point x="839" y="0" type="move" name="bot"/>
    </contour>
    <contour>
      <point x="169" y="1210" type="curve" smooth="yes"/>
      <point x="169" y="1201"/>
      <point x="168" y="806"/>
      <point x="168" y="793" type="curve" smooth="yes"/>
      <point x="168" y="781"/>
      <point x="168" y="385"/>
      <point x="169" y="377" type="curve" smooth="yes"/>
      <point x="172" y="1"/>
      <point x="563" y="-38"/>
      <point x="858" y="-38" type="curve" smooth="yes"/>
      <point x="1164" y="-38"/>
      <point x="1520" y="-1"/>
      <point x="1523" y="365" type="curve" smooth="yes"/>
      <point x="1524" y="594" type="line"/>
      <point x="963" y="615" type="line"/>
      <point x="962" y="603"/>
      <point x="962" y="235"/>
      <point x="958" y="230" type="curve" smooth="yes"/>
      <point x="954" y="225"/>
      <point x="868" y="223"/>
      <point x="851" y="223" type="curve" smooth="yes"/>
      <point x="821" y="223"/>
      <point x="735" y="228"/>
      <point x="734" y="239" type="curve" smooth="yes"/>
      <point x="733" y="251"/>
      <point x="733" y="769"/>
      <point x="733" y="781" type="curve" smooth="yes"/>
      <point x="733" y="800"/>
      <point x="733" y="1323"/>
      <point x="734" y="1341" type="curve" smooth="yes"/>
      <point x="735" y="1355"/>
      <point x="825" y="1356"/>
      <point x="850" y="1356" type="curve" smooth="yes"/>
      <point x="864" y="1356"/>
      <point x="950" y="1356"/>
      <point x="955" y="1352" type="curve" smooth="yes"/>
      <point x="959" y="1348"/>
      <point x="961" y="984"/>
      <point x="962" y="969" type="curve"/>
      <point x="1523" y="992" type="line"/>
      <point x="1523" y="1220" type="line" smooth="yes"/>
      <point x="1519" y="1591"/>
      <point x="1168" y="1624"/>
      <point x="853" y="1624" type="curve" smooth="yes"/>
      <point x="537" y="1624"/>
      <point x="172" y="1582"/>
    </contour>
  </outline>
</glyph>
<glyph name="I" format="1">
  <advance width="931"/>
  <unicode hex="0049"/>
  <outline>
    <contour>
      <point x="466" y="1585" type="move" name="top"/>
    </contour>
    <contour>
      <point x="477" y="0" type="move" name="ogonek"/>
    </contour>
    <contour>
      <point x="466" y="0" type="move" name="bot"/>
    </contour>
    <contour>
      <point x="184" y="1585" type="line"/>
      <point x="184" y="0" type="line"/>
      <point x="747" y="0" type="line"/>
      <point x="747" y="1585" type="line"/>
    </contour>
  </outline>
</glyph>
<glyph name="T" format="1">
  <advance width="1326"/>
  <unicode hex="0054"/>
  <outline>
    <contour>
      <point x="664" y="1585" type="move" name="top"/>
    </contour>
    <contour>
      <point x="664" y="0" type="move" name="bot"/>
    </contour>
    <contour>
      <point x="663" y="843" type="move" name="mid"/>
    </contour>
    <contour>
      <point x="24" y="1585" type="line"/>
      <point x="24" y="1327" type="line"/>
      <point x="379" y="1327" type="line"/>
      <point x="379" y="0" type="line"/>
      <point x="943" y="0" type="line"/>
      <point x="943" y="1327" type="line"/>
      <point x="1303" y="1327" type="line"/>
      <point x="1303" y="1585" type="line"/>
    </contour>
  </outline>
</glyph>
<glyph name="underscore" format="1">
  <advance width="896"/>
  <unicode hex="005F"/>
  <outline>
    <contour>
      <point x="6" y="-86" type="line"/>
      <point x="6" y="-333" type="line"/>
      <point x="890" y="-333" type="line"/>
      <point x="890" y="-86" type="line"/>
    </contour>
  </outline>
</glyph>
<glyph name="a" format="1">
  <advance width="1546"/>
  <unicode hex="0061"/>
  <outline>
    <contour>
      <point x="765" y="1280" type="move" name="top"/>
    </contour>
    <contour>
      <point x="1142" y="0" type="move" name="ogonek"/>
    </contour>
    <contour>
      <point x="768" y="0" type="move" name="bot"/>
    </contour>
    <contour>
      <point x="182" y="992" type="curve" smooth="yes"/>
      <point x="182" y="956"/>
      <point x="187" y="922"/>
      <point x="192" y="889" type="curve"/>
      <point x="680" y="906" type="line"/>
      <point x="680" y="909"/>
      <point x="680" y="1084"/>
      <point x="681" y="1086" type="curve" smooth="yes"/>
      <point x="682" y="1093"/>
      <point x="748" y="1095"/>
      <point x="766" y="1095" type="curve" smooth="yes"/>
      <point x="783" y="1095"/>
      <point x="853" y="1092"/>
      <point x="853" y="1086" type="curve" smooth="yes"/>
      <point x="853" y="765" type="line"/>
      <point x="844" y="765"/>
      <point x="608" y="739"/>
      <point x="601" y="739" type="curve" smooth="yes"/>
      <point x="298" y="706"/>
      <point x="129" y="667"/>
      <point x="129" y="375" type="curve" smooth="yes"/>
      <point x="129" y="95"/>
      <point x="273" y="-22"/>
      <point x="547" y="-22" type="curve" smooth="yes"/>
      <point x="713" y="-22"/>
      <point x="815" y="35"/>
      <point x="874" y="141" type="curve"/>
      <point x="928" y="1" type="line"/>
      <point x="1385" y="1" type="line"/>
      <point x="1385" y="929" type="line" smooth="yes"/>
      <point x="1385" y="1276"/>
      <point x="1074" y="1302"/>
      <point x="766" y="1302" type="curve" smooth="yes"/>
      <point x="530" y="1302"/>
      <point x="182" y="1284"/>
    </contour>
    <contour>
      <point x="853" y="217" type="line"/>
      <point x="853" y="206"/>
      <point x="771" y="198"/>
      <point x="749" y="198" type="curve" smooth="yes"/>
      <point x="734" y="198"/>
      <point x="657" y="200"/>
      <point x="656" y="212" type="curve" smooth="yes"/>
      <point x="656" y="215"/>
      <point x="656" y="577"/>
      <point x="656" y="581" type="curve" smooth="yes"/>
      <point x="656" y="590"/>
      <point x="812" y="621"/>
      <point x="853" y="621" type="curve"/>
    </contour>
  </outline>
</glyph>
<glyph name="uni00AD" format="1">
  <advance width="1284"/>
  <unicode hex="00AD"/>
  <outline>
    <contour>
      <point x="224" y="560" type="line"/>
      <point x="1052" y="560" type="line"/>
      <point x="1052" y="880" type="line"/>
      <point x="224" y="880" type="line"/>
    </contour>
  </outline>
</glyph>
<glyph name="Thorn" format="1">
  <advance width="1655"/>
  <unicode hex="00DE"/>
  <outline>
    <contour>
      <point x="186" y="0" type="line"/>
      <point x="748" y="0" type="line"/>
      <point x="748" y="263" type="line"/>
      <point x="893" y="263" type="line" smooth="yes"/>
      <point x="1228" y="263"/>
      <point x="1515" y="336"/>
      <point x="1515" y="660" type="curve" smooth="yes"/>
      <point x="1515" y="1006" type="line" smooth="yes"/>
      <point x="1514" y="1349"/>
      <point x="1286" y="1400"/>
      <point x="896" y="1400" type="curve" smooth="yes"/>
      <point x="748" y="1400" type="line"/>
      <point x="748" y="1588" type="line"/>
      <point x="186" y="1588" type="line"/>
    </contour>
    <contour>
      <point x="748" y="489" type="line"/>
      <point x="748" y="1176" type="line"/>
      <point x="918" y="1176" type="line" smooth="yes"/>
      <point x="951" y="1176"/>
      <point x="955" y="859"/>
      <point x="955" y="832" type="curve" smooth="yes"/>
      <point x="955" y="812"/>
      <point x="955" y="489"/>
      <point x="927" y="489" type="curve" smooth="yes"/>
    </contour>
  </outline>
</glyph>
<glyph name="oslash" format="1">
  <advance width="1631"/>
  <unicode hex="00F8"/>
  <outline>
    <contour>
      <point x="790" y="1282" type="move" name="top"/>
    </contour>
    <contour>
      <point x="184" y="-34" type="line"/>
      <point x="1450" y="1262" type="line"/>
      <point x="1392" y="1320" type="line"/>
      <point x="126" y="24" type="line"/>
    </contour>
    <component base="o"/>
  </outline>
</glyph>
<glyph name="Hbar" format="1">
  <advance width="1782"/>
  <unicode hex="0126"/>
  <outline>
    <contour>
      <point x="202" y="0" type="line"/>
      <point x="766" y="0" type="line"/>
      <point x="766" y="688" type="line"/>
      <point x="1006" y="688" type="line"/>
      <point x="1006" y="0" type="line"/>
      <point x="1571" y="0" type="line"/>
      <point x="1571" y="1151" type="line"/>
      <point x="1674" y="1151" type="line"/>
      <point x="1674" y="1333" type="line"/>
      <point x="1571" y="1333" type="line"/>
      <point x="1571" y="1585" type="line"/>
      <point x="1006" y="1585" type="line"/>
      <point x="1006" y="1333" type="line"/>
      <point x="766" y="1333" type="line"/>
      <point x="766" y="1585" type="line"/>
      <point x="202" y="1585" type="line"/>
      <point x="202" y="1333" type="line"/>
      <point x="107" y="1333" type="line"/>
      <point x="107" y="1151" type="line"/>
      <point x="202" y="1151" type="line"/>
    </contour>
    <contour>
      <point x="766" y="928" type="line"/>
      <point x="766" y="1151" type="line"/>
      <point x="1006" y="1151" type="line"/>
      <point x="1006" y="928" type="line"/>
    </contour>
  </outline>
</glyph>
<glyph name="Lslash" format="1">
  <advance width="1224"/>
  <unicode hex="0141"/>
  <outline>
    <contour>
      <point x="39" y="594" type="line"/>
      <point x="964" y="953" type="line"/>
      <point x="964" y="1276" type="line"/>
      <point x="39" y="919" type="line"/>
    </contour>
    <component base="L"/>
  </outline>
</glyph>
<glyph name="eng" format="1">
  <advance width="1593"/>
  <unicode hex="014B"/>
  <outline>
    <contour>
      <point x="630" y="-519" type="line"/>
      <point x="1175" y="-519"/>
      <point x="1429" y="-383"/>
      <point x="1429" y="32" type="curve" smooth="yes"/>
      <point x="1429" y="911" type="line" smooth="yes"/>
      <point x="1429" y="1173"/>
      <point x="1292" y="1306"/>
      <point x="1016" y="1307" type="curve" smooth="yes"/>
      <point x="866" y="1307"/>
      <point x="733" y="1253"/>
      <point x="676" y="1167" type="curve"/>
      <point x="641" y="1280" type="line"/>
      <point x="164" y="1280" type="line"/>
      <point x="164" y="0" type="line"/>
      <point x="698" y="0" type="line"/>
      <point x="698" y="1073" type="line" smooth="yes"/>
      <point x="698" y="1087"/>
      <point x="777" y="1094"/>
      <point x="802" y="1094" type="curve" smooth="yes"/>
      <point x="819" y="1094"/>
      <point x="895" y="1092"/>
      <point x="895" y="1061" type="curve" smooth="yes"/>
      <point x="895" y="-174" type="line" smooth="yes"/>
      <point x="855" y="-208"/>
      <point x="774" y="-223"/>
      <point x="626" y="-223" type="curve"/>
    </contour>
  </outline>
</glyph>
<glyph name="dotaccent" format="1">
  <advance width="1059"/>
  <unicode hex="02D9"/>
  <outline>
    <contour>
      <point x="600" y="1280" type="move" name="_top"/>
    </contour>
    <contour>
      <point x="600" y="1450" type="curve" smooth="yes"/>
      <point x="765" y="1450"/>
      <point x="858" y="1508"/>
      <point x="858" y="1644" type="curve" smooth="yes"/>
      <point x="858" y="1779"/>
      <point x="765" y="1837"/>
      <point x="600" y="1837" type="curve" smooth="yes"/>
      <point x="436" y="1837"/>
      <point x="343" y="1780"/>
      <point x="343" y="1644" type="curve" smooth="yes"/>
      <point x="343" y="1508"/>
      <point x="436" y="1450"/>
    </contour>
  </outline>
</glyph>
<glyph name="ogonek" format="1">
  <advance width="1037"/>
  <unicode hex="02DB"/>
  <outline>
    <contour>
      <point x="637" y="0" type="move" name="_ogonek"/>
    </contour>
    <contour>
      <point x="568" y="0" type="line"/>
      <point x="391" y="-133"/>
      <point x="339" y="-250"/>
      <point x="339" y="-338" type="curve" smooth="yes"/>
      <point x="339" y="-483"/>
      <point x="486" y="-583"/>
      <point x="681" y="-583" type="curve" smooth="yes"/>
      <point x="759" y="-583"/>
      <point x="832" y="-559"/>
      <point x="869" y="-542" type="curve"/>
      <point x="830" y="-350" type="line"/>
      <point x="805" y="-357"/>
      <point x="773" y="-364"/>
      <point x="744" y="-364" type="curve" smooth="yes"/>
      <point x="664" y="-364"/>
      <point x="589" y="-326"/>
      <point x="589" y="-231" type="curve" smooth="yes"/>
      <point x="589" y="-165"/>
      <point x="632" y="-87"/>
      <point x="724" y="0" type="curve"/>
    </contour>
  </outline>
</glyph>
<glyph name="uni0307" format="1">
  <advance width="895"/>
  <unicode hex="0307"/>
  <outline>
    <contour>
      <point x="441" y="1280" type="move" name="_top"/>
    </contour>
    <contour>
      <point x="252" y="1447" type="curve"/>
      <point x="252" y="1321"/>
      <point x="344" y="1235"/>
      <point x="436" y="1235" type="curve"/>
      <point x="527" y="1235"/>
      <point x="639" y="1298"/>
      <point x="639" y="1424" type="curve"/>
      <point x="639" y="1550"/>
      <point x="547" y="1636"/>
      <point x="455" y="1636" type="curve"/>
      <point x="364" y="1636"/>
      <point x="252" y="1573"/>
    </contour>
  </outline>
</glyph>
<glyph name="Sigma" format="1">
  <advance width="1397"/>
  <unicode hex="03A3"/>
  <outline>
    <contour>
      <point x="172" y="0" type="line"/>
      <point x="1303" y="0" type="line"/>
      <point x="1303" y="291" type="line"/>
      <point x="729" y="291" type="line"/>
      <point x="1111" y="735" type="line"/>
      <point x="1111" y="827" type="line"/>
      <point x="715" y="1306" type="line"/>
      <point x="1255" y="1306" type="line"/>
      <point x="1255" y="1585" type="line"/>
      <point x="172" y="1585" type="line"/>
      <point x="172" y="1307" type="line"/>
      <point x="579" y="829" type="line"/>
      <point x="172" y="310" type="line"/>
    </contour>
  </outline>
</glyph>
<glyph name="Omega" format="1">
  <advance width="1898"/>
  <unicode hex="03A9"/>
  <outline>
    <contour>
      <point x="106" y="0" type="line"/>
      <point x="858" y="0" type="line"/>
      <point x="867" y="247" type="line"/>
      <point x="611" y="419"/>
      <point x="510" y="567"/>
      <point x="510" y="848" type="curve" smooth="yes"/>
      <point x="510" y="1161"/>
      <point x="679" y="1303"/>
      <point x="949" y="1303" type="curve" smooth="yes"/>
      <point x="1220" y="1303"/>
      <point x="1388" y="1161"/>
      <point x="1388" y="848" type="curve" smooth="yes"/>
      <point x="1388" y="567"/>
      <point x="1298" y="419"/>
      <point x="1032" y="247" type="curve"/>
      <point x="1040" y="0" type="line"/>
      <point x="1793" y="0" type="line"/>
      <point x="1793" y="256" type="line"/>
      <point x="1346" y="256" type="line"/>
      <point x="1611" y="367"/>
      <point x="1765" y="547"/>
      <point x="1765" y="857" type="curve" smooth="yes"/>
      <point x="1765" y="1369"/>
      <point x="1404" y="1602"/>
      <point x="949" y="1602" type="curve" smooth="yes"/>
      <point x="495" y="1602"/>
      <point x="134" y="1369"/>
      <point x="134" y="857" type="curve" smooth="yes"/>
      <point x="134" y="547"/>
      <point x="287" y="367"/>
      <point x="552" y="256" type="curve"/>
      <point x="106" y="256" type="line"/>
    </contour>
  </outline>
</glyph>
<glyph name="bullet" format="1">
  <advance width="1322"/>
  <unicode hex="2022"/>
  <outline>
    <contour>
      <point x="672" y="205" type="curve" smooth="yes"/>
      <point x="1027" y="205"/>
      <point x="1134" y="413"/>
      <point x="1134" y="720" type="curve" smooth="yes"/>
      <point x="1134" y="1054"/>
      <point x="1004" y="1232"/>
      <point x="674" y="1232" type="curve" smooth="yes"/>
      <point x="322" y="1232"/>
      <point x="182" y="1077"/>
      <point x="182" y="720" type="curve" smooth="yes"/>
      <point x="182" y="390"/>
      <point x="294" y="205"/>
    </contour>
  </outline>
</glyph>
<glyph name="perthousand" format="1">
  <advance width="3934"/>
  <unicode hex="2030"/>
  <outline>
    <contour>
      <point x="3351" y="133" type="curve" smooth="yes"/>
      <point x="3121" y="133"/>
      <point x="2912" y="154"/>
      <point x="2911" y="445" type="curve" smooth="yes"/>
      <point x="2911" y="452"/>
      <point x="2911" y="780"/>
      <point x="2911" y="789" type="curve" smooth="yes"/>
      <point x="2911" y="1078"/>
      <point x="3123" y="1100"/>
      <point x="3350" y="1100" type="curve" smooth="yes"/>
      <point x="3578" y="1100"/>
      <point x="3789" y="1078"/>
      <point x="3790" y="789" type="curve" smooth="yes"/>
      <point x="3791" y="783"/>
      <point x="3791" y="454"/>
      <point x="3791" y="446" type="curve" smooth="yes"/>
      <point x="3791" y="161"/>
      <point x="3576" y="133"/>
    </contour>
    <contour>
      <point x="3351" y="342" type="curve" smooth="yes"/>
      <point x="3371" y="342"/>
      <point x="3413" y="344"/>
      <point x="3413" y="364" type="curve" smooth="yes"/>
      <point x="3413" y="869" type="line" smooth="yes"/>
      <point x="3413" y="891"/>
      <point x="3372" y="892"/>
      <point x="3353" y="892" type="curve" smooth="yes"/>
      <point x="3334" y="892"/>
      <point x="3292" y="892"/>
      <point x="3292" y="869" type="curve" smooth="yes"/>
      <point x="3292" y="863"/>
      <point x="3292" y="368"/>
      <point x="3292" y="364" type="curve" smooth="yes"/>
      <point x="3292" y="344"/>
      <point x="3334" y="342"/>
    </contour>
    <component base="percent"/>
  </outline>
</glyph>
<glyph name="foursuperior" format="1">
  <advance width="1224"/>
  <unicode hex="2074"/>
  <outline>
    <contour>
      <point x="726" y="537" type="line"/>
      <point x="1068" y="537" type="line"/>
      <point x="1068" y="1173" type="line"/>
      <point x="726" y="1173" type="line"/>
      <point x="726" y="941" type="line"/>
      <point x="571" y="941" type="line"/>
      <point x="571" y="975" type="line"/>
      <point x="757" y="1585" type="line"/>
      <point x="393" y="1585" type="line"/>
      <point x="203" y="974" type="line"/>
      <point x="203" y="707" type="line"/>
      <point x="726" y="707" type="line"/>
    </contour>
  </outline>
</glyph>
<glyph name="Euro" format="1">
  <advance width="1357"/>
  <unicode hex="20AC"/>
  <outline>
    <contour>
      <point x="858" y="-38" type="curve" smooth="yes"/>
      <point x="1164" y="-38"/>
      <point x="1519" y="-1"/>
      <point x="1523" y="365" type="curve" smooth="yes"/>
      <point x="1523" y="368"/>
      <point x="1523" y="493"/>
      <point x="1524" y="496" type="curve"/>
      <point x="963" y="499" type="line"/>
      <point x="962" y="486"/>
      <point x="962" y="235"/>
      <point x="958" y="230" type="curve" smooth="yes"/>
      <point x="954" y="225"/>
      <point x="866" y="223"/>
      <point x="849" y="223" type="curve" smooth="yes"/>
      <point x="819" y="223"/>
      <point x="735" y="228"/>
      <point x="734" y="239" type="curve" smooth="yes"/>
      <point x="733" y="247"/>
      <point x="733" y="592"/>
      <point x="733" y="601" type="curve"/>
      <point x="995" y="601" type="line"/>
      <point x="1015" y="747" type="line"/>
      <point x="733" y="747" type="line"/>
      <point x="733" y="836" type="line"/>
      <point x="995" y="836" type="line"/>
      <point x="1015" y="982" type="line"/>
      <point x="733" y="982" type="line"/>
      <point x="733" y="991"/>
      <point x="734" y="1332"/>
      <point x="734" y="1341" type="curve" smooth="yes"/>
      <point x="735" y="1355"/>
      <point x="825" y="1356"/>
      <point x="850" y="1356" type="curve" smooth="yes"/>
      <point x="864" y="1356"/>
      <point x="950" y="1356"/>
      <point x="955" y="1352" type="curve" smooth="yes"/>
      <point x="959" y="1348"/>
      <point x="961" y="1091"/>
      <point x="962" y="1076" type="curve"/>
      <point x="1523" y="1079" type="line"/>
      <point x="1523" y="1082"/>
      <point x="1523" y="1217"/>
      <point x="1523" y="1220" type="curve" smooth="yes"/>
      <point x="1519" y="1591"/>
      <point x="1168" y="1624"/>
      <point x="853" y="1624" type="curve" smooth="yes"/>
      <point x="537" y="1624"/>
      <point x="172" y="1582"/>
      <point x="169" y="1210" type="curve" smooth="yes"/>
      <point x="169" y="1206"/>
      <point x="169" y="987"/>
      <point x="169" y="982" type="curve"/>
      <point x="38" y="982" type="line"/>
      <point x="18" y="836" type="line"/>
      <point x="168" y="836" type="line"/>
      <point x="168" y="747" type="line"/>
      <point x="38" y="747" type="line"/>
      <point x="18" y="601" type="line"/>
      <point x="169" y="601" type="line"/>
      <point x="169" y="597"/>
      <point x="169" y="380"/>
      <point x="169" y="377" type="curve" smooth="yes"/>
      <point x="172" y="1"/>
      <point x="563" y="-38"/>
    </contour>
  </outline>
</glyph>
<glyph name="partialdiff" format="1">
  <advance width="1391"/>
  <unicode hex="2202"/>
  <outline>
    <contour>
      <point x="632" y="-24" type="curve" smooth="yes"/>
      <point x="1102" y="-24"/>
      <point x="1197" y="341"/>
      <point x="1197" y="674" type="curve" smooth="yes"/>
      <point x="1197" y="1120"/>
      <point x="1019" y="1432"/>
      <point x="430" y="1432" type="curve"/>
      <point x="406" y="1223" type="line"/>
      <point x="794" y="1223"/>
      <point x="903" y="1053"/>
      <point x="908" y="819" type="curve"/>
      <point x="882" y="862"/>
      <point x="815" y="908"/>
      <point x="708" y="908" type="curve" smooth="yes"/>
      <point x="367" y="908"/>
      <point x="215" y="652"/>
      <point x="215" y="395" type="curve" smooth="yes"/>
      <point x="215" y="152"/>
      <point x="353" y="-24"/>
    </contour>
    <contour>
      <point x="669" y="212" type="curve" smooth="yes"/>
      <point x="590" y="212"/>
      <point x="525" y="279"/>
      <point x="525" y="400" type="curve" smooth="yes"/>
      <point x="525" y="495"/>
      <point x="571" y="671"/>
      <point x="711" y="671" type="curve" smooth="yes"/>
      <point x="767" y="671"/>
      <point x="809" y="640"/>
      <point x="862" y="563" type="curve"/>
      <point x="863" y="555"/>
      <point x="863" y="546"/>
      <point x="863" y="537" type="curve" smooth="yes"/>
      <point x="863" y="446"/>
      <point x="825" y="212"/>
    </contour>
  </outline>
</glyph>
<glyph name="emptyset" format="1">
  <advance width="1849"/>
  <unicode hex="2205"/>
  <outline>
    <contour>
      <point x="350" y="-81" type="line"/>
      <point x="500" y="97" type="line"/>
      <point x="620" y="18"/>
      <point x="765" y="-25"/>
      <point x="921" y="-25" type="curve" smooth="yes"/>
      <point x="1322" y="-25"/>
      <point x="1650" y="297"/>
      <point x="1650" y="696" type="curve" smooth="yes"/>
      <point x="1650" y="895"/>
      <point x="1569" y="1073"/>
      <point x="1440" y="1204" type="curve"/>
      <point x="1591" y="1382" type="line"/>
      <point x="1501" y="1460" type="line"/>
      <point x="1350" y="1281" type="line"/>
      <point x="1229" y="1367"/>
      <point x="1081" y="1419"/>
      <point x="921" y="1419" type="curve" smooth="yes"/>
      <point x="522" y="1419"/>
      <point x="194" y="1127"/>
      <point x="194" y="696" type="curve" smooth="yes"/>
      <point x="194" y="474"/>
      <point x="277" y="292"/>
      <point x="412" y="167" type="curve"/>
      <point x="267" y="-6" type="line"/>
    </contour>
    <contour>
      <point x="504" y="276" type="line"/>
      <point x="403" y="378"/>
      <point x="343" y="524"/>
      <point x="343" y="695" type="curve" smooth="yes"/>
      <point x="343" y="1037"/>
      <point x="592" y="1285"/>
      <point x="921" y="1285" type="curve" smooth="yes"/>
      <point x="1049" y="1285"/>
      <point x="1166" y="1243"/>
      <point x="1260" y="1174" type="curve"/>
    </contour>
    <contour>
      <point x="920" y="109" type="curve" smooth="yes"/>
      <point x="796" y="109"/>
      <point x="683" y="142"/>
      <point x="591" y="204" type="curve"/>
      <point x="1347" y="1095" type="line"/>
      <point x="1443" y="988"/>
      <point x="1501" y="846"/>
      <point x="1501" y="695" type="curve" smooth="yes"/>
      <point x="1501" y="382"/>
      <point x="1250" y="109"/>
    </contour>
  </outline>
</glyph>
<glyph name="uni2219" format="1">
  <advance width="1641"/>
  <unicode hex="2219"/>
  <outline>
    <contour>
      <point x="593" y="479" type="line"/>
      <point x="1123" y="479" type="line"/>
      <point x="1123" y="936" type="line"/>
      <point x="593" y="936" type="line"/>
    </contour>
  </outline>
</glyph>
<glyph name="approxequal" format="1">
  <advance width="1370"/>
  <unicode hex="2248"/>
  <outline>
    <contour>
      <point x="1000" y="719" type="curve" smooth="yes"/>
      <point x="1142" y="704"/>
      <point x="1200" y="768"/>
      <point x="1201" y="1022" type="curve"/>
      <point x="1046" y="1022" type="line"/>
      <point x="1041" y="943"/>
      <point x="1009" y="917"/>
      <point x="956" y="917" type="curve" smooth="yes"/>
      <point x="849" y="917"/>
      <point x="655" y="1012"/>
      <point x="430" y="1037" type="curve" smooth="yes"/>
      <point x="293" y="1051"/>
      <point x="201" y="965"/>
      <point x="200" y="726" type="curve"/>
      <point x="363" y="726" type="line"/>
      <point x="362" y="811"/>
      <point x="396" y="840"/>
      <point x="455" y="840" type="curve" smooth="yes"/>
      <point x="570" y="840"/>
      <point x="833" y="736"/>
    </contour>
    <contour>
      <point x="995" y="352" type="curve" smooth="yes"/>
      <point x="1137" y="337"/>
      <point x="1195" y="402"/>
      <point x="1196" y="655" type="curve"/>
      <point x="1041" y="655" type="line"/>
      <point x="1036" y="576"/>
      <point x="1004" y="550"/>
      <point x="951" y="550" type="curve" smooth="yes"/>
      <point x="844" y="550"/>
      <point x="650" y="646"/>
      <point x="425" y="670" type="curve" smooth="yes"/>
      <point x="289" y="685"/>
      <point x="196" y="598"/>
      <point x="195" y="359" type="curve"/>
      <point x="358" y="359" type="line"/>
      <point x="357" y="444"/>
      <point x="391" y="473"/>
      <point x="450" y="473" type="curve" smooth="yes"/>
      <point x="565" y="473"/>
      <point x="828" y="370"/>
    </contour>
  </outline>
</glyph>
